<svg width="106" height="41" viewBox="0 0 106 41" fill="none" xmlns="http://www.w3.org/2000/svg">
<path d="M93.4312 5.85617C86.9305 5.85617 81.6406 11.175 81.6406 17.7135C81.6406 24.2521 86.9305 29.5709 93.4312 29.5709C99.9304 29.5709 105.219 24.2521 105.219 17.7135C105.219 11.175 99.9304 5.85617 93.4312 5.85617V5.85617ZM93.4312 23.9514C90.0124 23.9514 87.2279 21.15 87.2279 17.7135C87.2279 14.2756 90.0124 11.4757 93.4312 11.4757C96.847 11.4757 99.633 14.2756 99.633 17.7135C99.633 21.1515 96.8486 23.9514 93.4297 23.9514H93.4312ZM58.7121 15.3121L56.6504 14.2771C55.7553 13.8313 55.1941 13.4863 54.9684 13.2313C54.7533 13.0054 54.6308 12.7068 54.6253 12.3948C54.6253 11.9948 54.8053 11.6574 55.159 11.3948C55.5098 11.12 56.0084 10.9948 56.6413 10.9948C57.7987 10.9948 59.0811 11.694 60.4932 13.1031L63.973 9.60253C63.118 8.43686 61.9998 7.49004 60.7097 6.83933C59.4365 6.19802 58.0299 5.8674 56.6047 5.87449C54.4805 5.87449 52.7268 6.50194 51.3605 7.76599C49.9957 9.03005 49.3095 10.549 49.3095 12.3306C49.3095 15.0938 51.1165 17.396 54.7427 19.2234L56.6413 20.1775C58.2775 21.0065 59.0918 21.8507 59.0918 22.724C59.0918 23.1972 58.8646 23.6064 58.4132 23.9697C57.9618 24.3346 57.3641 24.5071 56.623 24.5071C55.9367 24.5071 55.1499 24.2704 54.2639 23.7896C53.3811 23.3164 52.5957 22.6803 51.9491 21.9148L48.4876 25.707C50.4394 28.2718 53.0425 29.5633 56.3149 29.5633C58.7746 29.5633 60.7372 28.89 62.1919 27.5527C63.6558 26.2169 64.3878 24.5437 64.3878 22.5423C64.3878 21.0416 63.9822 19.7241 63.177 18.6051C62.3642 17.4861 60.8729 16.3961 58.7121 15.3137V15.3121ZM23.7062 26.9879V6.3279H18.1098V7.71103C16.2241 6.49761 14.0292 5.85365 11.7876 5.85617C5.28839 5.85617 0 11.175 0 17.7135C0 24.2521 5.28839 29.5709 11.7891 29.5709C14.0038 29.5742 16.1738 28.9468 18.0458 27.7619C18.0458 27.9435 18.0366 28.1069 18.0366 28.2168C18.0366 31.6533 15.2521 34.4546 11.8348 34.4546C10.6729 34.4519 9.53531 34.1207 8.55322 33.499L5.78551 38.3735C7.61054 39.488 9.70621 40.0795 11.844 40.0833C18.3447 40.0833 23.7062 34.763 23.7062 28.2244C23.7062 27.971 23.723 27.2245 23.7062 26.9879V26.9879ZM11.7891 23.9499C8.37328 23.9499 5.58727 21.15 5.58727 17.7135C5.58727 14.2756 8.37176 11.4757 11.7891 11.4757C15.2064 11.4757 17.9909 14.2756 17.9909 17.7135C17.9909 21.15 15.2064 23.9514 11.7891 23.9514V23.9499ZM45.9989 6.32027H40.375V17.5929C40.3842 19.1944 40.3842 21.9591 39.21 23.1407C38.6488 23.7041 38.0343 24.214 36.7412 24.214C35.4389 24.214 34.8244 23.7041 34.2647 23.1407C33.089 21.9576 33.0982 19.1852 33.1058 17.5929V6.32027H27.4835V17.5594C27.4652 19.8768 27.4377 24.1788 30.2588 27.0337C31.9133 28.7068 33.885 29.5618 36.732 29.5618C39.5806 29.5618 41.5507 28.716 43.2053 27.0337C46.0264 24.1788 45.9989 19.8676 45.9806 17.5594L45.9989 6.31874V6.32027ZM77.868 22.9423C77.4166 23.2873 76.3217 24.0521 75.0835 23.8796C74.071 23.7422 73.249 22.9972 73.1225 20.5058V11.1582H79.7314V6.30195H73.1225V0H67.5169V1.23657H67.5078V19.7699C67.5078 22.7163 68.2489 29.5618 75.0744 29.5618C78.5283 29.5083 80.625 27.626 81.5034 26.8902L81.6208 26.7986L78.2568 22.6339C78.2477 22.6415 78.0129 22.8324 77.868 22.9423V22.9423Z" fill="#F45D48"/>
</svg>
