<svg width="40" height="40" viewBox="0 0 40 40" fill="none" xmlns="http://www.w3.org/2000/svg">
<rect width="40" height="40" rx="8" fill="#E5F0B6" fill-opacity="0.5"/>
<g clip-path="url(#clip0_364_36)">
<path d="M23.4999 21.9999H22.7099L22.4299 21.7299C23.6299 20.3299 24.2499 18.4199 23.9099 16.3899C23.4399 13.6099 21.1199 11.3899 18.3199 11.0499C14.0899 10.5299 10.5299 14.0899 11.0499 18.3199C11.3899 21.1199 13.6099 23.4399 16.3899 23.9099C18.4199 24.2499 20.3299 23.6299 21.7299 22.4299L21.9999 22.7099V23.4999L26.2499 27.7499C26.6599 28.1599 27.3299 28.1599 27.7399 27.7499C28.1499 27.3399 28.1499 26.6699 27.7399 26.2599L23.4999 21.9999ZM17.4999 21.9999C15.0099 21.9999 12.9999 19.9899 12.9999 17.4999C12.9999 15.0099 15.0099 12.9999 17.4999 12.9999C19.9899 12.9999 21.9999 15.0099 21.9999 17.4999C21.9999 19.9899 19.9899 21.9999 17.4999 21.9999Z" fill="#F4F4F4"/>
</g>
<defs>
<clipPath id="clip0_364_36">
<rect width="24" height="24" fill="white" transform="translate(8 8)"/>
</clipPath>
</defs>
</svg>
