<svg width="40" height="40" viewBox="0 0 40 40" fill="none" xmlns="http://www.w3.org/2000/svg">
<rect width="40" height="40" rx="8" fill="#E5F0B6" fill-opacity="0.5"/>
<path d="M20.0554 29.2386C18.8509 29.2386 17.777 29.017 16.8338 28.5739C15.8963 28.1307 15.152 27.5199 14.6009 26.7415C14.0497 25.9631 13.7628 25.071 13.7401 24.0653H17.3196C17.3594 24.7415 17.6435 25.2898 18.1719 25.7102C18.7003 26.1307 19.3281 26.3409 20.0554 26.3409C20.6349 26.3409 21.1463 26.2131 21.5895 25.9574C22.0384 25.696 22.3878 25.3352 22.6378 24.875C22.8935 24.4091 23.0213 23.875 23.0213 23.2727C23.0213 22.6591 22.8906 22.1193 22.6293 21.6534C22.3736 21.1875 22.0185 20.8239 21.5639 20.5625C21.1094 20.3011 20.5895 20.1676 20.0043 20.1619C19.4929 20.1619 18.9957 20.267 18.5128 20.4773C18.0355 20.6875 17.6634 20.9744 17.3963 21.3381L14.1151 20.75L14.9418 11.5455H25.6122V14.5625H17.9844L17.5327 18.9347H17.6349C17.9418 18.5028 18.4048 18.1449 19.0241 17.8608C19.6435 17.5767 20.3366 17.4347 21.1037 17.4347C22.1548 17.4347 23.0923 17.6818 23.9162 18.1761C24.7401 18.6705 25.3906 19.3494 25.8679 20.2131C26.3452 21.071 26.581 22.0597 26.5753 23.179C26.581 24.3551 26.3082 25.4006 25.7571 26.3153C25.2116 27.2244 24.4474 27.9403 23.4645 28.4631C22.4872 28.9801 21.3509 29.2386 20.0554 29.2386Z" fill="white"/>
</svg>
