<svg width="48" height="48" viewBox="0 0 48 48" fill="none" xmlns="http://www.w3.org/2000/svg">
<rect width="48" height="48" rx="8" fill="#553B33"/>
<g clip-path="url(#clip0_339_36)">
<path d="M30 18H28C28 15.79 26.21 14 24 14C21.79 14 20 15.79 20 18H18C16.9 18 16 18.9 16 20V32C16 33.1 16.9 34 18 34H30C31.1 34 32 33.1 32 32V20C32 18.9 31.1 18 30 18ZM24 16C25.1 16 26 16.9 26 18H22C22 16.9 22.9 16 24 16ZM30 32H18V20H20V22C20 22.55 20.45 23 21 23C21.55 23 22 22.55 22 22V20H26V22C26 22.55 26.45 23 27 23C27.55 23 28 22.55 28 22V20H30V32Z" fill="#E5F1B5"/>
</g>
<defs>
<clipPath id="clip0_339_36">
<rect width="24" height="24" fill="white" transform="translate(12 12)"/>
</clipPath>
</defs>
</svg>
