<svg width="86" height="36" viewBox="0 0 86 36" fill="none" xmlns="http://www.w3.org/2000/svg">
<path fill-rule="evenodd" clip-rule="evenodd" d="M85.9146 18.4717C85.9146 12.3622 82.9553 7.54144 77.2993 7.54144C71.6194 7.54144 68.1828 12.3622 68.1828 18.4239C68.1828 25.6073 72.2399 29.2348 78.0629 29.2348C80.9029 29.2348 83.0508 28.5905 84.6736 27.6836V22.9106C83.0508 23.722 81.1893 24.2232 78.8266 24.2232C76.5117 24.2232 74.4593 23.4118 74.1968 20.5957H85.8668C85.8668 20.2854 85.9146 19.0444 85.9146 18.4717ZM74.1252 16.2045C74.1252 13.5077 75.7719 12.3861 77.2754 12.3861C78.7312 12.3861 80.2824 13.5077 80.2824 16.2045H74.1252Z" fill="#635BFF"/>
<path fill-rule="evenodd" clip-rule="evenodd" d="M58.9707 7.54143C56.6319 7.54143 55.1284 8.63922 54.2931 9.40291L53.9829 7.92327H48.7325V35.75L54.6988 34.4851L54.7227 27.7313C55.5818 28.3518 56.8467 29.2348 58.9468 29.2348C63.2187 29.2348 67.1087 25.7982 67.1087 18.233C67.0848 11.3121 63.1471 7.54143 58.9707 7.54143ZM57.5388 23.9845C56.1307 23.9845 55.2954 23.4833 54.7227 22.8628L54.6988 14.0089C55.3193 13.3168 56.1785 12.8395 57.5388 12.8395C59.7105 12.8395 61.214 15.2737 61.214 18.4001C61.214 21.598 59.7344 23.9845 57.5388 23.9845Z" fill="#635BFF"/>
<path fill-rule="evenodd" clip-rule="evenodd" d="M40.5228 6.13334L46.5129 4.84462V0L40.5228 1.26485V6.13334Z" fill="#635BFF"/>
<path d="M46.5129 7.9471H40.5228V28.8291H46.5129V7.9471Z" fill="#635BFF"/>
<path fill-rule="evenodd" clip-rule="evenodd" d="M34.1028 9.71311L33.721 7.94709H28.5661V28.8291H34.5324V14.6771C35.9405 12.8394 38.327 13.1736 39.0668 13.4361V7.94709C38.3031 7.66071 35.5109 7.13568 34.1028 9.71311Z" fill="#635BFF"/>
<path fill-rule="evenodd" clip-rule="evenodd" d="M22.1705 2.76833L16.3474 4.00932L16.3235 23.1253C16.3235 26.6573 18.9725 29.2586 22.5046 29.2586C24.4615 29.2586 25.8934 28.9006 26.681 28.4711V23.6264C25.9173 23.9367 22.1466 25.0345 22.1466 21.5024V13.0303H26.681V7.94706H22.1466L22.1705 2.76833Z" fill="#635BFF"/>
<path fill-rule="evenodd" clip-rule="evenodd" d="M6.03788 14.0089C6.03788 13.0782 6.80156 12.7202 8.06641 12.7202C9.88016 12.7202 12.1712 13.2691 13.985 14.2475V8.63924C12.0042 7.85169 10.0472 7.54144 8.06641 7.54144C3.22179 7.54144 0 10.0711 0 14.2953C0 20.882 9.06875 19.832 9.06875 22.6719C9.06875 23.7697 8.11414 24.1277 6.7777 24.1277C4.79689 24.1277 2.26719 23.3163 0.262516 22.2185V27.8984C2.48197 28.853 4.7253 29.2587 6.7777 29.2587C11.7416 29.2587 15.1544 26.8006 15.1544 22.5287C15.1305 15.4169 6.03788 16.6818 6.03788 14.0089Z" fill="#635BFF"/>
</svg>
