<svg width="179" height="42" viewBox="0 0 179 42" fill="none" xmlns="http://www.w3.org/2000/svg">
<path d="M55.0603 27.1119C54.5457 27.2406 53.9025 27.3692 53.2593 27.3692C51.9728 27.3692 51.4583 26.5973 51.4583 25.3109V19.5218H55.0603C55.9609 19.5218 56.8614 18.8786 56.8614 17.8494C56.8614 16.8202 56.0895 16.177 55.0603 16.177H51.4583V14.2473C51.4583 13.0895 50.5577 12.3176 49.5286 12.3176C48.4994 12.3176 47.5989 13.2182 47.5989 14.2473V25.4395C47.5989 28.6557 49.1426 30.9713 52.7447 30.9713C53.7739 30.9713 55.189 30.8426 56.2181 30.3281C57.1187 29.9421 57.376 29.2989 57.376 28.6557C57.376 27.7551 56.4754 26.8546 55.0603 27.1119ZM67.9249 15.6624C67.4103 15.5338 66.3812 15.4051 65.4807 15.4051C62.2645 15.4051 60.4635 17.3348 60.4635 20.2937V29.0416C60.4635 30.0708 61.364 30.9713 62.3931 30.9713C63.4223 30.9713 64.3228 30.0708 64.3228 29.0416V21.0656C64.3228 19.7791 64.8374 19.2645 65.7379 19.2645C66.6385 19.2645 67.153 19.5218 67.9249 19.5218C69.0827 19.5218 69.726 18.4926 69.726 17.7208C69.5973 16.6916 69.0827 16.0484 67.9249 15.6624ZM78.6025 15.4051C75.0004 15.4051 72.4275 17.7208 72.0416 21.4515C72.0416 22.352 71.9129 23.8958 72.0416 25.0536C72.2989 28.6557 74.8718 31.0999 78.7312 31.0999C80.5322 31.0999 82.2046 30.714 83.2338 30.0708C84.0056 29.5562 84.1343 29.0416 84.1343 28.527C84.1343 27.4979 83.2338 26.4687 81.69 26.9833C80.7895 27.3692 79.7603 27.6265 78.7312 27.6265C76.9301 27.6265 75.515 26.726 75.515 24.9249V24.539H82.8478C84.1343 24.539 84.7775 23.7671 84.7775 22.6093V21.9661C84.9062 17.9781 82.3333 15.4051 78.6025 15.4051ZM81.0468 21.9661H75.6437C75.6437 20.0364 76.5442 18.7499 78.6025 18.7499C80.4036 18.7499 81.4327 19.9077 81.3041 21.5801C81.3041 21.8374 81.3041 21.9661 81.0468 21.9661ZM94.04 15.4051C90.4379 15.4051 87.865 17.7208 87.4791 21.4515C87.4791 22.352 87.3504 23.8958 87.4791 25.0536C87.7364 28.6557 90.3093 31.0999 94.1687 31.0999C95.9697 31.0999 97.6421 30.714 98.6713 30.0708C99.4431 29.5562 99.5718 29.0416 99.5718 28.527C99.5718 27.4979 98.6713 26.4687 97.1275 26.9833C96.227 27.3692 95.1978 27.6265 94.1687 27.6265C92.3676 27.6265 90.9525 26.726 90.9525 24.9249V24.539H98.2853C99.5718 24.539 100.215 23.7671 100.215 22.6093V21.9661C100.344 17.9781 97.7708 15.4051 94.04 15.4051ZM96.4843 21.9661H91.0812C91.0812 20.0364 91.9817 18.7499 94.04 18.7499C95.8411 18.7499 96.8702 19.9077 96.7416 21.5801C96.7416 21.8374 96.7416 21.9661 96.4843 21.9661ZM159.006 21.8374L156.948 21.3229C155.661 21.0656 155.275 20.6796 155.275 20.0364C155.275 19.3932 155.919 18.8786 157.334 18.8786C158.106 18.8786 159.006 19.1359 159.778 19.5218C160.679 20.0364 161.708 19.9077 162.222 19.2645C162.866 18.6213 162.866 17.4635 162.094 16.6916C161.065 15.9197 159.263 15.4051 157.462 15.4051C154.118 15.4051 151.673 17.0775 151.673 20.165C151.673 22.6093 153.474 23.8958 155.79 24.539C156.948 24.7963 156.819 24.7963 157.848 25.0536C159.006 25.3109 159.521 25.8255 159.521 26.34C159.521 27.1119 158.878 27.6265 157.334 27.6265C156.047 27.6265 154.89 27.2406 153.989 26.726C153.088 26.0827 152.059 26.34 151.545 27.1119C151.03 27.8838 151.159 28.913 151.931 29.4275C152.96 30.3281 154.632 31.0999 157.334 31.0999C160.679 31.0999 163.251 29.2989 163.251 26.2114C163.251 23.8958 161.836 22.4807 159.006 21.8374ZM176.888 24.539C178.174 24.539 178.818 23.7671 178.818 22.6093V21.9661C178.818 17.9781 176.245 15.4051 172.514 15.4051C168.912 15.4051 166.339 17.7208 165.953 21.4515C165.953 22.352 165.824 23.8958 165.953 25.0536C166.21 28.6557 168.783 31.0999 172.643 31.0999C174.444 31.0999 176.116 30.714 177.145 30.0708C177.917 29.5562 178.046 29.0416 178.046 28.527C178.046 27.4979 177.145 26.4687 175.601 26.9833C174.701 27.3692 173.672 27.6265 172.643 27.6265C170.842 27.6265 169.426 26.726 169.426 24.9249V24.539H176.888ZM172.514 18.7499C174.315 18.7499 175.344 19.9077 175.216 21.5801C175.216 21.8374 175.087 21.9661 174.958 21.9661H169.555C169.555 20.0364 170.584 18.7499 172.514 18.7499ZM125.43 15.4051C121.57 15.4051 118.74 17.8494 118.354 21.1942C118.225 22.352 118.225 24.1531 118.354 25.3109C118.611 28.6557 121.57 31.0999 125.43 31.0999C129.289 31.0999 132.119 28.6557 132.376 25.3109C132.505 24.1531 132.505 22.4807 132.376 21.3229C132.119 17.8494 129.289 15.4051 125.43 15.4051ZM128.517 24.6676C128.388 26.34 127.231 27.3692 125.43 27.3692C123.629 27.3692 122.471 26.2114 122.342 24.6676C122.342 23.8958 122.342 22.6093 122.342 21.8374C122.471 20.165 123.629 19.1359 125.43 19.1359C127.231 19.1359 128.388 20.2937 128.517 21.8374C128.646 22.6093 128.646 23.8958 128.517 24.6676ZM110.121 15.4051C108.706 15.4051 107.162 15.9197 106.647 16.563V12.4463C106.647 11.2885 105.875 10.5166 104.846 10.5166C103.817 10.5166 103.045 11.4171 103.045 12.4463V29.0416C103.045 30.0708 103.946 30.9713 104.975 30.9713C106.004 30.9713 106.776 30.0708 106.776 29.0416V20.4223C107.419 19.7791 108.448 19.2645 109.735 19.2645C111.279 19.2645 112.179 20.165 112.179 21.9661V29.0416C112.179 30.1994 112.951 31.0999 113.98 31.0999C115.138 31.0999 115.91 30.1994 115.91 29.0416V21.7088C115.781 17.5921 113.723 15.4051 110.121 15.4051ZM146.142 15.5338C145.112 15.5338 144.212 16.4343 144.212 17.4635V26.5973C143.569 26.9833 142.668 27.3692 141.51 27.3692C139.967 27.3692 138.809 26.4687 138.809 24.6676V17.4635C138.809 16.3057 137.908 15.4051 136.879 15.4051C135.721 15.4051 135.078 16.3057 135.078 17.4635V24.7963C135.078 28.7843 137.394 30.9713 141.382 30.9713C144.341 30.9713 146.399 29.9421 147.299 29.2989C147.814 29.0416 147.943 28.6557 147.943 28.0124V17.4635C147.943 16.4343 147.171 15.5338 146.142 15.5338Z" fill="#3E474F"/>
<path d="M33.4479 7.55794C32.0328 6.78607 29.8458 8.07253 28.5594 10.3882L26.1151 14.5048C25.2146 16.1772 25.3432 18.2355 26.501 19.9079L26.6297 20.0366C27.7875 21.5803 29.2026 23.1241 29.7172 23.6387C29.9745 23.896 30.2318 24.2819 30.3604 24.7965C30.7464 26.2116 29.9745 27.7553 28.4307 28.1413C27.0156 28.5272 25.4719 27.7553 25.0859 26.2116C24.9573 25.8257 24.9573 25.4397 24.9573 25.1824C25.0859 24.5392 24.8286 23.6387 23.9281 22.6095C23.0276 21.709 21.3552 23.51 20.712 25.3111V25.4397C20.1974 27.2408 19.8115 28.9132 19.9401 29.0418C19.9401 29.1704 20.0687 29.1704 20.0687 29.2991C20.8406 30.8428 20.326 32.6439 18.7823 33.4158C17.2385 34.1876 15.4375 33.6731 14.6656 32.1293C13.8937 30.5856 14.4083 28.7845 15.9521 28.0126C16.0807 28.0126 16.0807 27.884 16.2094 27.884C16.338 27.884 16.5953 27.1121 16.9812 26.0829C17.2385 25.1824 17.3672 24.7965 17.4958 24.4106C17.6245 23.896 17.8818 22.6095 17.7531 22.0949C17.6245 21.4517 16.9812 21.4517 16.338 21.8376C15.9521 22.0949 15.1802 22.7382 14.9229 22.9954C14.2797 23.51 13.7651 24.2819 13.5078 24.9251C13.3792 25.1824 13.1219 25.5684 12.8646 25.8257C11.7068 26.7262 10.0344 26.5975 9.00521 25.4397C8.10469 24.2819 8.23333 22.6095 9.39115 21.5803C9.77708 21.323 10.163 21.0658 10.549 21.0658C11.1922 20.9371 13.5078 19.522 14.9229 18.4928C15.1802 18.3642 15.5661 17.9783 15.6948 17.8496C16.0807 17.335 15.6948 16.9491 15.3089 16.9491C14.151 17.0777 12.8646 17.2064 12.6073 17.5923C12.4786 17.721 12.35 17.9783 12.0927 18.1069C11.0635 18.8788 9.51979 18.6215 8.74792 17.5923C7.97604 16.5632 8.23333 15.0194 9.2625 14.2475C9.64844 13.8616 10.2917 13.7329 10.6776 13.7329C11.5781 13.7329 13.8937 14.2475 15.6948 13.8616L16.2094 13.7329C18.1391 13.347 20.4547 11.6746 21.3552 10.0022C21.3552 10.0022 22.2557 8.45846 23.2849 6.52878C24.4427 4.59909 24.3141 2.41211 23.1562 1.76888L20.9693 0.482422C19.8115 -0.160807 18.1391 -0.160807 16.9812 0.482422L2.05833 8.97305C0.900521 9.61628 0 11.16 0 12.4465V28.9132C0 30.1996 0.900521 31.7434 2.05833 32.3866L16.9812 40.8772C18.1391 41.5204 19.9401 41.5204 20.9693 40.8772L35.8922 32.3866C37.05 31.7434 37.9505 30.1996 37.9505 28.9132V12.4465C37.9505 11.16 37.05 9.61628 35.8922 8.97305C35.8922 8.97305 34.863 8.32982 33.4479 7.55794Z" fill="#5FCF80"/>
</svg>
