<svg width="124" height="35" viewBox="0 0 124 35" fill="none" xmlns="http://www.w3.org/2000/svg">
<path d="M33.8979 23.6741C30.4492 23.6741 28.1662 21.0616 27.5293 20.0496C28.3465 13.6479 30.7378 11.6239 33.8979 11.6239C37.0223 11.6239 39.4496 14.0716 39.4496 17.6489C39.4496 21.2263 37.0223 23.6741 33.8979 23.6741ZM33.8979 7.69348C28.2744 7.69348 25.1261 11.2826 24.2249 14.9777C23.2035 13.0949 22.4465 10.5766 21.8577 8.2348H14.0831V17.7078C14.0831 21.144 12.4849 23.6858 9.3607 23.6858C6.23645 23.6858 4.44604 21.144 4.44604 17.7078L4.48208 8.2348H0V17.7078C0 20.4733 0.913239 22.9798 2.5835 24.7684C4.30184 26.616 6.64501 27.5809 9.3607 27.5809C14.768 27.5809 18.5412 23.5211 18.5412 17.7078V11.3415C19.1059 13.4361 20.4518 17.4607 23.0232 20.991L20.62 34.3945H25.1742L26.7603 24.8979C27.277 25.3215 27.8297 25.6981 28.4185 26.0394C29.9446 26.9808 31.6869 27.5103 33.4894 27.5691C33.4894 27.5691 33.7657 27.5809 33.91 27.5809C39.4856 27.5809 43.9195 23.3564 43.9195 17.6489C43.9195 11.9416 39.4735 7.69348 33.8979 7.69348Z" fill="#14A800"/>
<path d="M98.2935 10.2598V8.23578H93.8956V26.9817H98.3536V19.6387C98.3536 15.1199 98.7742 11.872 104.963 12.2956V8.01219C102.079 7.80037 99.8316 8.38875 98.2935 10.2598Z" fill="#14A800"/>
<path d="M67.3408 8.23621L64.1084 21.3454L60.6597 8.23621H54.9881L51.5273 21.3454L48.307 8.23621H43.7888L48.7396 26.994H54.0989L57.8239 13.6729L61.5128 26.994H66.8721L72.1113 8.23621H67.3408Z" fill="#14A800"/>
<path d="M81.9287 23.6858C78.7565 23.6858 76.3772 21.2382 76.3772 17.6489C76.3772 14.0598 78.7685 11.6239 81.9287 11.6239C85.053 11.6239 87.4804 14.0716 87.4804 17.6489C87.4804 21.2263 85.053 23.6858 81.9287 23.6858ZM81.9287 7.69348C76.3171 7.69348 71.9192 11.9534 71.9192 17.6489C71.9192 23.3445 76.3171 27.5691 81.9287 27.5691C87.5043 27.5691 91.9384 23.3445 91.9384 17.6489C91.9384 11.9534 87.5164 7.69348 81.9287 7.69348Z" fill="#14A800"/>
<path d="M111.356 17.767H112.389L118.614 26.9928H123.649L116.487 16.7667C119.96 15.437 122.291 11.9655 122.291 8.23514H117.845C117.845 12.2832 114.588 13.813 111.356 13.813V0.833252H106.886V26.9928H111.344L111.356 17.767Z" fill="#14A800"/>
</svg>
